<?xml version="1.0" encoding="UTF-8"?>
<svg version="1.1" xmlns="http://www.w3.org/2000/svg" width="1105" height="1280">
<path d="M0 0 C1.61314552 -0.00271703 3.22628979 -0.00628192 4.83943176 -0.01062012 C9.18500616 -0.01966768 13.53048461 -0.01623008 17.87606049 -0.00986195 C22.45595027 -0.00475513 27.0358325 -0.00950693 31.61572266 -0.01263428 C39.3120265 -0.01626333 47.00829186 -0.01150583 54.70458984 -0.00195312 C63.5482465 0.00889835 72.39181068 0.00542565 81.23546505 -0.00560594 C88.8742167 -0.01474639 96.51294084 -0.01593046 104.15169621 -0.0107286 C108.6933601 -0.00764173 113.23498088 -0.00710685 117.77664185 -0.01380157 C168.0923753 -0.07758431 168.0923753 -0.07758431 184.52734375 6.25878906 C185.7803125 6.59910156 185.7803125 6.59910156 187.05859375 6.94628906 C190.67368711 8.86823743 192.68574022 11.68884644 194.52734375 15.25878906 C195.24162334 18.38371196 195.29114403 21.41695026 195.3046875 24.61425781 C195.33960548 25.97323433 195.33960548 25.97323433 195.37522888 27.35966492 C195.42240559 29.31000449 195.45866838 31.26063301 195.48504639 33.21136475 C195.52786957 36.29667324 195.60191642 39.37985957 195.68408203 42.46435547 C195.84856511 48.83286759 195.97154111 55.20177821 196.08984375 61.57128906 C196.13319585 63.78809119 196.17681434 66.00488812 196.22070312 68.22167969 C196.32597288 73.56732714 196.42801119 78.91302815 196.52734375 84.25878906 C197.18734375 83.92878906 197.84734375 83.59878906 198.52734375 83.25878906 C198.52734375 86.88878906 198.52734375 90.51878906 198.52734375 94.25878906 C232.84734375 94.25878906 267.16734375 94.25878906 302.52734375 94.25878906 C302.48785335 77.17674175 302.48785335 77.17674175 302.43725586 60.09472656 C302.43433315 57.94108123 302.43178543 55.78743535 302.4296875 53.63378906 C302.42457153 52.53035156 302.41945557 51.42691406 302.41418457 50.29003906 C302.41353517 44.51297083 302.65290657 38.97137524 303.52734375 33.25878906 C304.18734375 33.25878906 304.84734375 33.25878906 305.52734375 33.25878906 C305.58792969 32.53433594 305.64851563 31.80988281 305.7109375 31.06347656 C305.88400345 29.06656177 306.06669487 27.07046336 306.2578125 25.07519531 C306.44917933 23.07555058 306.62027468 21.07391974 306.77734375 19.07128906 C307.86304694 14.99990211 309.82386616 11.49421776 312.52734375 8.25878906 C314.51953125 7.14941406 314.51953125 7.14941406 316.52734375 6.25878906 C317.45546875 5.59878906 318.38359375 4.93878906 319.33984375 4.25878906 C330.15854991 -1.87363848 346.46998287 -0.02822376 358.5 0 C360.46487049 -0.00271648 362.42973996 -0.00628108 364.39460754 -0.01062012 C369.69057503 -0.01967305 374.98646384 -0.01622808 380.28243256 -0.00986195 C385.85967707 -0.00475923 391.43691534 -0.0095057 397.01416016 -0.01263428 C406.38494053 -0.01626397 415.75568929 -0.01150357 425.12646484 -0.00195312 C435.90258042 0.00890401 446.67862014 0.00542175 457.45473385 -0.00560594 C466.75638692 -0.01473784 476.05801739 -0.01593471 485.3596735 -0.0107286 C490.89288128 -0.00763783 496.42605365 -0.00711813 501.95925903 -0.01380157 C572.96341848 -0.08777427 572.96341848 -0.08777427 585.27734375 11.94628906 C586.01984375 12.70941406 586.76234375 13.47253906 587.52734375 14.25878906 C588.18734375 14.58878906 588.84734375 14.91878906 589.52734375 15.25878906 C590.18734375 37.69878906 590.84734375 60.13878906 591.52734375 83.25878906 C591.52734375 73.35878906 591.52734375 63.45878906 591.52734375 53.25878906 C591.85734375 53.25878906 592.18734375 53.25878906 592.52734375 53.25878906 C592.69803239 57.65447562 592.86313424 62.05035608 593.02734375 66.44628906 C593.07503906 67.67283203 593.12273438 68.899375 593.171875 70.16308594 C593.21699219 71.38447266 593.26210938 72.60585937 593.30859375 73.86425781 C593.35048828 74.96922607 593.39238281 76.07419434 593.43554688 77.21264648 C593.56442705 82.8933146 593.52734375 88.57665915 593.52734375 94.25878906 C627.84734375 94.25878906 662.16734375 94.25878906 697.52734375 94.25878906 C697.52734375 76.10878906 697.52734375 57.95878906 697.52734375 39.25878906 C698.18734375 39.25878906 698.84734375 39.25878906 699.52734375 39.25878906 C699.50414062 38.15019531 699.4809375 37.04160156 699.45703125 35.89941406 C699.43826798 34.43587915 699.42006838 32.97233693 699.40234375 31.50878906 C699.38558594 30.77917969 699.36882813 30.04957031 699.3515625 29.29785156 C699.31624337 25.41274774 699.42310417 22.57236174 701.52734375 19.25878906 C701.67171875 18.61941406 701.81609375 17.98003906 701.96484375 17.32128906 C702.71462576 14.57208834 703.8788462 12.57889672 705.52734375 10.25878906 C707.40234375 9.19628906 707.40234375 9.19628906 709.52734375 8.25878906 C710.26984375 7.61941406 711.01234375 6.98003906 711.77734375 6.32128906 C721.92616963 -1.29033035 735.31646616 0.11210577 747.36230469 0.12939453 C748.95515482 0.12803742 750.54800465 0.12625575 752.14085388 0.12408447 C756.44945266 0.11954253 760.75802737 0.12128754 765.06662655 0.12446356 C769.60116067 0.12700921 774.13569284 0.12464301 778.67022705 0.12307739 C786.29626837 0.12125989 793.9223 0.12364869 801.54833984 0.12841797 C810.31236421 0.13383634 819.07636523 0.13211397 827.84038901 0.12659156 C835.4026216 0.12202033 842.96484725 0.12143002 850.52708077 0.12403023 C855.02631527 0.12557415 859.52553889 0.12583989 864.02477264 0.12249374 C925.64561723 0.08315661 925.64561723 0.08315661 937.52734375 10.25878906 C938.18734375 10.58878906 938.84734375 10.91878906 939.52734375 11.25878906 C945.59636752 40.01723501 942.79995844 72.17563707 943.05997467 101.4213562 C943.09012988 104.79075961 943.12142909 108.16015073 943.15301514 111.52954102 C943.40239503 138.27220343 943.625066 165.01486778 943.65234375 191.75878906 C943.65493195 192.89356689 943.65752014 194.02834473 943.66018677 195.19750977 C943.68303446 207.6330856 943.49736197 220.04845635 943.08203125 232.47753906 C943.04328888 233.64522827 943.00454651 234.81291748 942.96463013 236.01599121 C942.88189281 238.28023255 942.7879203 240.54409455 942.68206787 242.80737305 C942.57275452 245.24581541 942.49709661 247.68587743 942.44537354 250.1262207 C942.39910828 251.38233154 942.35284302 252.63844238 942.30517578 253.93261719 C942.26047653 255.64294128 942.26047653 255.64294128 942.21487427 257.38781738 C941.52734375 260.25878906 941.52734375 260.25878906 939.11520386 262.0369873 C937.8342131 262.64177917 937.8342131 262.64177917 936.52734375 263.25878906 C935.01649823 264.55611617 933.53880802 265.8926945 932.08984375 267.25878906 C928.13181317 270.88308038 924.07133331 274.27789601 919.83984375 277.57128906 C918.96948486 278.24998047 918.96948486 278.24998047 918.08154297 278.94238281 C915.54035113 280.92063055 912.9960961 282.89492694 910.45214844 284.86962891 C908.36774282 286.49270016 906.29077797 288.12490349 904.21484375 289.75878906 C903.56233643 290.26321533 902.9098291 290.7676416 902.23754883 291.28735352 C898.54578363 294.14079686 898.54578363 294.14079686 896.52734375 298.25878906 C894.66845703 298.80688477 894.66845703 298.80688477 892.52734375 299.25878906 C890.08248166 300.93266946 887.74359431 302.63776446 885.40234375 304.44628906 C884.70367188 304.97802734 884.005 305.50976562 883.28515625 306.05761719 C877.23394331 310.67649515 871.23461105 315.36333788 865.23510742 320.04907227 C859.79673317 324.29120201 854.30565795 328.4551575 848.77734375 332.57910156 C843.16556442 336.76864212 837.59361774 341.00902593 832.02734375 345.25878906 C820.0875019 354.37015312 820.0875019 354.37015312 815.49694985 357.78824037 C814.22295511 358.74935946 812.96000752 359.72549841 811.71424943 360.7229448 C808.10472454 363.56418508 804.66875974 365.7246555 800.4609251 367.58205318 C793.87504439 370.84126019 787.34962782 374.87102635 784.87382177 382.19099131 C781.95624734 394.62566433 782.89045002 408.04811501 783.10341799 420.71705139 C783.17572584 426.32652487 783.13190334 431.93528534 783.10282898 437.54498291 C783.06408092 448.51708486 783.13132556 459.48607733 783.23440704 470.45766331 C783.35023537 483.23510313 783.35847947 496.01193985 783.36192801 508.78982156 C783.37154516 531.58294127 783.47530883 554.37430249 783.6340332 577.16674805 C783.78804574 599.28601691 783.8800544 621.40436592 783.90063477 643.52416992 C783.90160839 644.54732051 783.90160839 644.54732051 783.90260168 645.5911408 C783.90456222 647.65471367 783.90649948 649.71828656 783.90842944 651.78185946 C783.91035336 653.83880044 783.91228316 655.89574141 783.91423437 657.95268236 C783.91553108 659.3198533 783.91681109 660.68702425 783.91807433 662.05419521 C783.93871643 683.81981543 784.01465961 705.58526454 784.09932584 727.35072147 C784.12852862 734.99298913 784.15050058 742.63523809 784.16739783 750.27754236 C784.19459133 762.39280734 784.24481992 774.50749439 784.34257016 786.62241293 C784.38686032 792.15842609 784.42027386 797.69391324 784.42374039 803.23011589 C784.42736257 808.29500365 784.46324776 813.35858516 784.52530589 818.42308467 C784.54219074 820.25778727 784.54728669 822.0926429 784.53958587 823.92740703 C784.1495329 833.16738213 784.1495329 833.16738213 787.0491699 841.62255943 C788.82033126 843.17634702 790.42743374 844.21267735 792.52734375 845.25878906 C797.450754 848.89783142 797.450754 848.89783142 797.921875 851.11816406 C798.73495387 853.99279128 800.2142935 855.3095044 802.33984375 857.38378906 C803.02691406 858.06699219 803.71398437 858.75019531 804.421875 859.45410156 C806.39841514 861.32714037 806.39841514 861.32714037 808.6640625 862.18847656 C811.27457661 863.68801716 811.46442571 865.48789966 812.52734375 868.25878906 C814.53260023 870.69903649 814.53260023 870.69903649 816.90234375 872.94628906 C818.05863281 874.09677734 818.05863281 874.09677734 819.23828125 875.27050781 C821.3760227 877.3160537 821.3760227 877.3160537 823.75390625 878.27832031 C824.33914063 878.601875 824.924375 878.92542969 825.52734375 879.25878906 C825.89060622 880.58428115 826.220634 881.91908088 826.52734375 883.25878906 C828.22623002 885.39505784 828.22623002 885.39505784 830.33984375 887.38378906 C831.02691406 888.06699219 831.71398437 888.75019531 832.421875 889.45410156 C834.39841514 891.32714037 834.39841514 891.32714037 836.6640625 892.18847656 C839.27457661 893.68801716 839.46442571 895.48789966 840.52734375 898.25878906 C842.53260023 900.69903649 842.53260023 900.69903649 844.90234375 902.94628906 C846.05863281 904.09677734 846.05863281 904.09677734 847.23828125 905.27050781 C849.37120578 907.30487328 849.37120578 907.30487328 851.69140625 908.27832031 C854.07298292 909.5501836 854.45293595 910.82437139 855.52734375 913.25878906 C858.07468015 916.73242961 860.54941986 919.68092495 864.27734375 921.88378906 C866.52734375 923.25878906 866.52734375 923.25878906 867.40234375 925.57128906 C869.37662581 930.28762954 873.76423264 933.05244988 877.90234375 935.88378906 C879.52734375 937.25878906 879.52734375 937.25878906 879.96484375 939.19628906 C880.82077636 942.33470863 882.94291852 943.43078097 885.52734375 945.25878906 C886.18734375 945.58878906 886.84734375 945.91878906 887.52734375 946.25878906 C887.68203125 947.15597656 887.68203125 947.15597656 887.83984375 948.07128906 C888.83882177 951.2498555 890.86370816 952.37475413 893.52734375 954.25878906 C894.18734375 954.58878906 894.84734375 954.91878906 895.52734375 955.25878906 C895.68203125 956.15597656 895.68203125 956.15597656 895.83984375 957.07128906 C896.83882177 960.2498555 898.86370816 961.37475413 901.52734375 963.25878906 C902.18734375 963.58878906 902.84734375 963.91878906 903.52734375 964.25878906 C903.68203125 965.18691406 903.68203125 965.18691406 903.83984375 966.13378906 C904.35772349 968.52959158 904.35772349 968.52959158 907.02734375 969.75878906 C910.04782791 971.57107956 909.72819853 972.0622082 910.52734375 975.25878906 C912.17555619 976.28892184 913.84238077 977.28993535 915.52734375 978.25878906 C915.85734375 979.24878906 916.18734375 980.23878906 916.52734375 981.25878906 C917.03313965 981.71398926 917.53893555 982.16918945 918.06005859 982.63818359 C920.05025872 984.83634474 919.93738801 986.2546434 920.00390625 989.18847656 C920.03484375 990.14882813 920.06578125 991.10917969 920.09765625 992.09863281 C920.12472656 993.60103516 920.12472656 993.60103516 920.15234375 995.13378906 C920.20361882 997.11044303 920.2581972 999.08701464 920.31640625 1001.06347656 C920.33396973 1001.93987793 920.3515332 1002.8162793 920.36962891 1003.71923828 C920.53053332 1006.3101481 920.96101405 1008.72819849 921.52734375 1011.25878906 C921.85734375 1011.25878906 922.18734375 1011.25878906 922.52734375 1011.25878906 C922.52734375 1041.28878906 922.52734375 1071.31878906 922.52734375 1102.25878906 C931.43734375 1102.25878906 940.34734375 1102.25878906 949.52734375 1102.25878906 C985.32049964 1103.13179286 985.32049964 1103.13179286 993.52734375 1110.25878906 C994.67203125 1111.09410156 994.67203125 1111.09410156 995.83984375 1111.94628906 C997.98733826 1114.88915191 998.12674888 1117.16932208 998.3515625 1120.74707031 C998.48941465 1123.33187816 998.48941465 1123.33187816 999.0292511 1126.14164734 C999.81866685 1131.61597663 999.67477113 1137.1254466 999.67260742 1142.64477539 C999.67764534 1144.49489983 999.67764534 1144.49489983 999.68278503 1146.38240051 C999.69063375 1149.75033754 999.69396123 1153.1182129 999.69460082 1156.48615479 C999.69531393 1158.59505299 999.69745319 1160.70394481 999.70009804 1162.81284142 C999.70933659 1170.18358136 999.71343481 1177.55430328 999.71264648 1184.92504883 C999.71204617 1191.77385376 999.72259278 1198.62257981 999.73839015 1205.4713648 C999.75150588 1211.36970633 999.75682869 1217.26802221 999.75619107 1223.1663782 C999.75593726 1226.68106947 999.75872351 1230.19569058 999.76936913 1233.7103672 C999.78093349 1237.63514862 999.77627867 1241.55982351 999.77026367 1245.48461914 C999.77869293 1247.20953583 999.77869293 1247.20953583 999.78729248 1248.96929932 C999.75722773 1256.71499775 998.98374059 1263.88959855 996.52734375 1271.25878906 C995.19889619 1271.93513905 993.86504093 1272.60092246 992.52734375 1273.25878906 C991.60775054 1274.43283273 990.71059182 1275.6246674 989.83210945 1276.82978106 C985.71998488 1281.00335818 981.42686348 1281.06621658 975.88729449 1281.17076577 C973.47460915 1281.17809848 971.06361205 1281.1506337 968.65109253 1281.12291718 C966.89400729 1281.12839919 965.13692941 1281.13695305 963.37987226 1281.14830053 C958.53335308 1281.17064609 953.68785165 1281.14920301 948.84140004 1281.12085377 C943.57542308 1281.09774001 938.30955817 1281.11519002 933.0435667 1281.12756205 C923.80761808 1281.14363412 914.57198062 1281.13362038 905.33606148 1281.10668564 C891.60093474 1281.06674125 877.86601353 1281.06681481 864.13084168 1281.07514588 C841.01974606 1281.08800438 817.90881742 1281.06813437 794.79776001 1281.02946472 C771.88871446 1280.99122014 748.97972606 1280.96705525 726.07064819 1280.96186829 C725.35886023 1280.96170015 724.64707226 1280.96153201 723.91371496 1280.96135877 C717.41204688 1280.95982666 710.91037877 1280.95845663 704.4087106 1280.957286 C688.24346601 1280.95436638 672.07822256 1280.94918056 655.91297913 1280.94242096 C655.17676321 1280.9421147 654.4405473 1280.94180844 653.68202181 1280.9414929 C617.85846944 1280.92638415 582.03495339 1280.88499471 546.21142578 1280.84179688 C497.23837859 1280.7827763 448.26536111 1280.73993093 399.29228182 1280.7197081 C396.97277316 1280.71875025 394.65326451 1280.71778487 392.33375585 1280.71681782 C380.01859435 1280.71169122 367.70343281 1280.70665465 355.38827121 1280.70178276 C300.01596224 1280.6798769 244.64365976 1280.6457631 189.2713602 1280.60702502 C184.97576588 1280.60402128 180.68017155 1280.60105195 176.38457719 1280.5981123 C142.67912318 1280.5750396 108.97367878 1280.54831394 75.26823932 1280.50888282 C72.71399836 1280.50590132 70.1597574 1280.50292382 67.60551643 1280.49995041 C65.72822833 1280.49776403 65.72822833 1280.49776403 63.81301522 1280.49553348 C55.17619634 1280.48571852 46.53937766 1280.47836853 37.90255547 1280.4722023 C27.56466553 1280.46479943 17.22678593 1280.4540449 6.88890433 1280.43889004 C1.69406638 1280.4313553 -3.50076119 1280.4252312 -8.69560456 1280.42342371 C-26.72505931 1280.41605574 -44.75067349 1280.38567224 -62.77400208 1279.87332916 C-63.97160524 1279.84311482 -65.16920841 1279.81290048 -66.40310258 1279.78177056 C-90.7406359 1278.96637153 -90.7406359 1278.96637153 -100.34765625 1270.82128906 C-102.59369493 1268.11283066 -103.01225951 1266.6657249 -103.47265625 1263.25878906 C-104.13265625 1262.59878906 -104.79265625 1261.93878906 -105.47265625 1261.25878906 C-105.14824021 1259.59036372 -104.81326436 1257.92398425 -104.47265625 1256.25878906 C-104.79849291 1254.25755405 -105.13273602 1252.25768009 -105.47265625 1250.25878906 C-105.55675154 1248.32397245 -105.5947275 1246.38674623 -105.59291077 1244.45010376 C-105.59428543 1243.31435913 -105.5956601 1242.1786145 -105.59707642 1241.00845337 C-105.59348114 1239.77702606 -105.58988586 1238.54559875 -105.58618164 1237.27685547 C-105.58632767 1235.96900085 -105.58647369 1234.66114624 -105.58662415 1233.31365967 C-105.58691032 1229.73973493 -105.58104267 1226.16584396 -105.57405019 1222.59192705 C-105.5677867 1218.8523326 -105.56721048 1215.11273732 -105.56602478 1211.37313843 C-105.56292029 1204.29722054 -105.5547188 1197.22131815 -105.54467529 1190.14540708 C-105.53348675 1182.08738229 -105.5279968 1174.02935674 -105.52297986 1165.97132611 C-105.51253544 1149.40047136 -105.4949531 1132.82963219 -105.47265625 1116.25878906 C-104.85777344 1115.97003906 -104.24289063 1115.68128906 -103.609375 1115.38378906 C-100.41466663 1113.70174882 -98.09068039 1111.49483734 -96.47265625 1108.25878906 C-95.14859263 1107.89035397 -93.81294148 1107.56296727 -92.47265625 1107.25878906 C-91.04547176 1106.61494644 -89.62907124 1105.94681942 -88.22265625 1105.25878906 C-83.90264787 1103.28147179 -80.19527492 1102.60225224 -75.47265625 1102.25878906 C-75.47265625 1101.59878906 -75.47265625 1100.93878906 -75.47265625 1100.25878906 C-59.63265625 1100.25878906 -43.79265625 1100.25878906 -27.47265625 1100.25878906 C-27.48425781 1093.21664063 -27.49585937 1086.17449219 -27.5078125 1078.91894531 C-27.51292414 1074.44824126 -27.51773828 1069.97754083 -27.52148438 1065.50683594 C-27.52745394 1058.41625212 -27.53450378 1051.32568126 -27.5480957 1044.23510742 C-27.55898903 1038.51630448 -27.56494673 1032.79751544 -27.56753349 1027.07870293 C-27.56937614 1024.90071837 -27.57297432 1022.72273455 -27.57838631 1020.54475594 C-27.58568231 1017.48595684 -27.58664359 1014.42721465 -27.58618164 1011.3684082 C-27.58977692 1010.47504257 -27.59337219 1009.58167694 -27.59707642 1008.66123962 C-27.58806556 1003.11986305 -27.33423679 997.73952215 -26.47265625 992.25878906 C-25.81265625 991.92878906 -25.15265625 991.59878906 -24.47265625 991.25878906 C-23.85468374 989.07732762 -23.85468374 989.07732762 -23.47265625 986.50878906 C-22.07834211 979.04761187 -22.07834211 979.04761187 -20.47265625 976.25878906 C-18.81317477 975.24691011 -17.14685063 974.24613447 -15.47265625 973.25878906 C-15.11103596 971.93284802 -14.77537586 970.59940449 -14.47265625 969.25878906 C-13.83328125 968.94941406 -13.19390625 968.64003906 -12.53515625 968.32128906 C-10.22452985 967.42036536 -10.22452985 967.42036536 -9.53515625 964.82128906 C-8.16203229 961.50963716 -6.53554028 961.00900851 -3.47265625 959.25878906 C-1.04836212 956.56512892 0.37883915 954.70430287 1.52734375 951.25878906 C2.10484375 950.99066406 2.68234375 950.72253906 3.27734375 950.44628906 C7.13949257 948.40793274 9.74044713 944.92515838 11.58984375 941.00878906 C12.52734375 939.25878906 12.52734375 939.25878906 14.390625 938.36035156 C16.74595996 937.14608382 17.96362148 935.90848749 19.65234375 933.88378906 C20.39871094 933.0059375 20.39871094 933.0059375 21.16015625 932.11035156 C22.54316171 930.23736702 23.49240216 928.33740592 24.52734375 926.25878906 C25.81940206 925.20600081 27.16369092 924.21703159 28.52734375 923.25878906 C35.02026055 918.1532081 35.02026055 918.1532081 39.33984375 911.25878906 C40.72701602 908.92249893 42.33230594 908.06495396 44.6015625 906.65722656 C49.85120896 902.84511006 56.28620929 897.84964101 57.52734375 891.25878906 C59.65234375 889.38378906 59.65234375 889.38378906 62.52734375 887.25878906 C66.28161725 884.19279904 69.90039635 880.9850379 73.40234375 877.63378906 C73.97726563 877.08464844 74.5521875 876.53550781 75.14453125 875.96972656 C76.68954049 874.05810496 77.01375355 872.62920535 77.52734375 870.25878906 C79.15234375 868.88378906 79.15234375 868.88378906 81.52734375 867.25878906 C85.48882583 864.07150525 89.23968622 860.65860464 92.90234375 857.13378906 C93.57007813 856.49183594 94.2378125 855.84988281 94.92578125 855.18847656 C96.63279729 853.1317304 96.96860002 851.81836748 97.52734375 849.25878906 C100.1032145 846.97730354 102.81540857 845.06130925 105.65349042 843.11569202 C108.29727178 840.87972214 108.51269603 840.32666316 109.29554808 836.6991111 C109.33464462 835.29520563 109.3410302 833.89015566 109.32149696 832.48584175 C109.34086946 831.31641844 109.34086946 831.31641844 109.36063331 830.12337041 C109.39667842 827.50073686 109.3899499 824.87995896 109.38345337 822.2571106 C109.40038686 820.36192877 109.41989101 818.46676845 109.44174993 816.57163703 C109.49408582 811.35568849 109.50866198 806.1402082 109.51691842 800.9240284 C109.53212512 795.30126829 109.58147011 789.67878916 109.62588501 784.05619812 C109.72543795 770.47270519 109.76758961 756.88925275 109.80492264 743.30547076 C109.82399848 736.90782182 109.84989314 730.51020159 109.87537766 724.11257553 C109.95818164 702.84325202 110.0285527 681.57397264 110.0563755 660.3045063 C110.05821154 658.92913281 110.06005045 657.55375933 110.06189223 656.17838585 C110.0628016 655.49633673 110.06371097 654.81428761 110.06464789 654.11157034 C110.06925914 650.65608589 110.07391363 647.20060151 110.07861328 643.74511719 C110.07953114 643.05937052 110.08044901 642.37362386 110.08139469 641.66709699 C110.11168594 619.44536718 110.22217274 597.22504242 110.38048662 575.00388038 C110.54763643 551.49943612 110.64175051 527.99609437 110.65313566 504.49095714 C110.66112895 491.68222501 110.70154185 478.87541807 110.82533646 466.06723404 C110.93046496 455.15729927 110.96688424 444.24983202 110.91445048 433.33946998 C110.88976036 427.77430758 110.89705367 422.21415846 110.99220276 416.64964485 C112.58974753 393.5498109 112.58974753 393.5498109 104.05695724 373.2633934 C98.8688147 368.80201628 93.02625801 365.26471466 86.29650366 363.7599889 C85.71268089 363.59459296 85.12885812 363.42919701 84.52734375 363.25878906 C83.82549953 361.94363245 83.16247595 360.60742886 82.52734375 359.25878906 C80.62743475 357.50201819 80.62743475 357.50201819 78.3515625 355.91113281 C77.52333984 355.30591797 76.69511719 354.70070313 75.84179688 354.07714844 C74.97490234 353.45646484 74.10800781 352.83578125 73.21484375 352.19628906 C72.35955078 351.57173828 71.50425781 350.9471875 70.62304688 350.30371094 C63.51187483 344.98546451 63.51187483 344.98546451 55.52734375 341.25878906 C55.12128906 340.3809375 55.12128906 340.3809375 54.70703125 339.48535156 C53.00844322 336.27940727 50.56361333 334.76207661 47.65234375 332.63378906 C46.07839844 331.46976562 46.07839844 331.46976562 44.47265625 330.28222656 C41.17329007 328.01555325 38.309628 326.51955048 34.52734375 325.25878906 C34.24503906 324.66324219 33.96273437 324.06769531 33.671875 323.45410156 C32.09367557 320.42697501 29.97970125 319.11862716 27.21484375 317.13378906 C26.1230483 316.33910788 25.03192517 315.54350235 23.94140625 314.74707031 C23.37711914 314.3379541 22.81283203 313.92883789 22.23144531 313.50732422 C19.48123637 311.49234306 16.7865903 309.40696432 14.08984375 307.32128906 C13.55713867 306.91193115 13.02443359 306.50257324 12.47558594 306.08081055 C9.62068447 303.8856876 6.78124239 301.67296662 3.95703125 299.43847656 C3.08002563 298.74999634 3.08002563 298.74999634 2.18530273 298.04760742 C1.06595278 297.1684245 -0.04936349 296.28407334 -1.15991211 295.39379883 C-3.93591213 293.22164171 -6.08578869 292.08008489 -9.47265625 291.25878906 C-9.96765625 289.77378906 -9.96765625 289.77378906 -10.47265625 288.25878906 C-11.11203125 288.11441406 -11.75140625 287.97003906 -12.41015625 287.82128906 C-13.09078125 287.63566406 -13.77140625 287.45003906 -14.47265625 287.25878906 C-15.13932292 285.92545573 -15.80598958 284.5921224 -16.47265625 283.25878906 C-19.12678386 281.4213161 -21.40626771 280.28091857 -24.47265625 279.25878906 C-24.735625 278.69160156 -24.99859375 278.12441406 -25.26953125 277.54003906 C-27.03645399 274.18976997 -29.8420774 272.12382807 -32.72265625 269.75878906 C-33.56376953 269.04916016 -33.56376953 269.04916016 -34.421875 268.32519531 C-38.51049391 264.91643913 -42.69199909 261.64911764 -47.47265625 259.25878906 C-47.29935287 258.42612518 -47.1260495 257.5934613 -46.94749451 256.73556519 C-46.43030881 252.94872021 -46.57709793 249.4168693 -46.87524414 245.63037109 C-47.54106487 235.86165238 -47.82261775 226.101503 -48.03125 216.31347656 C-48.05230742 215.35298275 -48.07336483 214.39248894 -48.09506035 213.40288925 C-48.68000974 185.8812399 -48.58881408 158.35363961 -48.54468381 130.82740188 C-48.53321399 123.54241827 -48.52793592 116.25743335 -48.52297986 108.97244287 C-48.51271145 94.06788151 -48.49529157 79.1633372 -48.47265625 64.25878906 C-48.80265625 64.25878906 -49.13265625 64.25878906 -49.47265625 64.25878906 C-49.50202127 60.44630561 -49.5195766 56.63385181 -49.53515625 52.82128906 C-49.54353516 51.75201172 -49.55191406 50.68273438 -49.56054688 49.58105469 C-49.61135488 32.96683701 -49.61135488 32.96683701 -46.47265625 28.25878906 C-46.80265625 28.25878906 -47.13265625 28.25878906 -47.47265625 28.25878906 C-47.35903363 26.77870497 -47.23142717 25.29968832 -47.09765625 23.82128906 C-47.02804688 22.99757813 -46.9584375 22.17386719 -46.88671875 21.32519531 C-46.68175781 20.30232422 -46.68175781 20.30232422 -46.47265625 19.25878906 C-45.81265625 18.92878906 -45.15265625 18.59878906 -44.47265625 18.25878906 C-44.12723774 15.92721414 -43.79471368 13.59370546 -43.47265625 11.25878906 C-41.15103531 7.77635765 -40.25820306 7.68888452 -36.47265625 6.25878906 C-35.48265625 5.59878906 -34.49265625 4.93878906 -33.47265625 4.25878906 C-23.83099176 -1.30342366 -10.78890992 -0.03088649 0 0 Z M192.52734375 16.25878906 C193.52734375 18.25878906 193.52734375 18.25878906 193.52734375 18.25878906 Z M308.52734375 16.25878906 C309.52734375 18.25878906 309.52734375 18.25878906 309.52734375 18.25878906 Z M587.52734375 16.25878906 C588.52734375 18.25878906 588.52734375 18.25878906 588.52734375 18.25878906 Z M700.52734375 24.25878906 C701.52734375 28.25878906 701.52734375 28.25878906 701.52734375 28.25878906 Z M303.52734375 42.25878906 C303.52734375 59.41878906 303.52734375 76.57878906 303.52734375 94.25878906 C303.85734375 94.25878906 304.18734375 94.25878906 304.52734375 94.25878906 C304.52734375 77.09878906 304.52734375 59.93878906 304.52734375 42.25878906 C304.19734375 42.25878906 303.86734375 42.25878906 303.52734375 42.25878906 Z M196.52734375 95.25878906 C196.52734375 95.58878906 196.52734375 95.91878906 196.52734375 96.25878906 C232.16734375 96.25878906 267.80734375 96.25878906 304.52734375 96.25878906 C304.52734375 95.92878906 304.52734375 95.59878906 304.52734375 95.25878906 C268.88734375 95.25878906 233.24734375 95.25878906 196.52734375 95.25878906 Z M591.52734375 95.25878906 C591.52734375 95.58878906 591.52734375 95.91878906 591.52734375 96.25878906 C627.16734375 96.25878906 662.80734375 96.25878906 699.52734375 96.25878906 C699.52734375 95.92878906 699.52734375 95.59878906 699.52734375 95.25878906 C663.88734375 95.25878906 628.24734375 95.25878906 591.52734375 95.25878906 Z M109.52734375 382.25878906 C109.52734375 532.40878906 109.52734375 682.55878906 109.52734375 837.25878906 C109.85734375 837.25878906 110.18734375 837.25878906 110.52734375 837.25878906 C110.52734375 687.10878906 110.52734375 536.95878906 110.52734375 382.25878906 C110.19734375 382.25878906 109.86734375 382.25878906 109.52734375 382.25878906 Z M-26.47265625 1002.25878906 C-26.47265625 1034.59878906 -26.47265625 1066.93878906 -26.47265625 1100.25878906 C-26.14265625 1100.25878906 -25.81265625 1100.25878906 -25.47265625 1100.25878906 C-25.47265625 1067.91878906 -25.47265625 1035.57878906 -25.47265625 1002.25878906 C-25.80265625 1002.25878906 -26.13265625 1002.25878906 -26.47265625 1002.25878906 Z " fill="#000000" transform="translate(105.47265625,-0.2587890625)"/>
<path d="M0 0 C183.81 0 367.62 0 557 0 C557 140.91 557 281.82 557 427 C373.19 427 189.38 427 0 427 C0 286.09 0 145.18 0 0 Z " fill="#FEFEFE" transform="translate(275,394)"/>
<path d="M0 0 C41.58 0 83.16 0 126 0 C126.33 16.5 126.66 33 127 50 C127.53869662 70.12617479 127.53869662 70.12617479 136.7890625 87.75 C148.45935895 97.1222844 165.03536828 95.16963344 179.25219727 95.31982422 C180.96023803 95.34086745 182.66827631 95.36211343 184.37631226 95.38354492 C199.87264323 95.57014792 215.36994177 95.67390892 230.86714268 95.75568962 C241.2659251 95.81176822 251.66329523 95.89268155 262.0612793 96.03564453 C271.16499471 96.16080598 280.26773702 96.24004179 289.37230343 96.26382077 C294.18081425 96.27785684 298.98674486 96.31402751 303.79446602 96.405056 C308.3157118 96.48980458 312.83314642 96.51242204 317.35508347 96.48869324 C319.00675475 96.49066178 320.65858099 96.51464597 322.3095417 96.56312943 C332.08403125 96.87393013 332.08403125 96.87393013 340.39561272 92.25177383 C362.48146578 68.50149012 352.58461764 27.41523598 353 0 C408.44 0 463.88 0 521 0 C521.33 16.5 521.66 33 522 50 C522.59648148 70.82714478 522.59648148 70.82714478 532.3125 88.625 C543.26152329 96.44908746 557.22405309 95.15015955 570.08007812 95.12939453 C571.44839525 95.13075349 572.816712 95.13253618 574.18502808 95.13470459 C577.86737037 95.13922361 581.54968433 95.13751142 585.23202705 95.1343255 C589.11704705 95.13176897 593.00206485 95.1341489 596.88708496 95.13571167 C603.41658964 95.13752557 609.94608298 95.13514939 616.47558594 95.13037109 C623.97126701 95.12494827 631.46692079 95.12667985 638.96260118 95.1321975 C645.44293462 95.1367729 651.92325996 95.13735721 658.40359449 95.13475883 C662.25385451 95.13321782 666.10410182 95.13294091 669.95436096 95.13629532 C689.72373597 95.17558942 689.72373597 95.17558942 709.48242188 94.60498047 C710.2374424 94.57306673 710.99246292 94.54115299 711.77036285 94.50827217 C722.25564137 93.93241844 734.29688022 92.11048548 741.75 84.125 C747.26185563 74.75484543 746.25550177 62.85750647 746.53515625 52.34375 C746.57350434 51.00161761 746.61219967 49.6594951 746.65124512 48.31738281 C746.79252468 43.37837341 746.92711901 38.4391746 747.0625 33.5 C747.371875 22.445 747.68125 11.39 748 0 C789.58 0 831.16 0 874 0 C874 52.14 874 104.28 874 158 C585.58 158 297.16 158 0 158 C0 105.86 0 53.72 0 0 Z " fill="#FEFEFE" transform="translate(116,58)"/>
<path d="M0 0 C273.57 0 547.14 0 829 0 C829 25.74 829 51.48 829 78 C555.43 78 281.86 78 0 78 C0 52.26 0 26.52 0 0 Z " fill="#FDFDFD" transform="translate(139,1025)"/>
<path d="M0 0 C326.7 0 653.4 0 990 0 C990 20.46 990 40.92 990 62 C663.3 62 336.6 62 0 62 C0 41.54 0 21.08 0 0 Z " fill="#FCFCFC" transform="translate(58,1161)"/>
<path d="M0 0 C2.45094712 -0.01224172 4.9018757 -0.02883857 7.35276705 -0.04941052 C12.67761642 -0.08398679 18.00113706 -0.08754537 23.32594681 -0.06352997 C31.24395351 -0.0279159 39.16109158 -0.04955481 47.07907362 -0.08227936 C61.22167692 -0.13877922 75.36384149 -0.13796859 89.50650924 -0.11253177 C101.88355649 -0.09035993 114.26043931 -0.08637144 126.63749886 -0.10053062 C127.45870507 -0.1014396 128.27991129 -0.10234858 129.12600255 -0.1032851 C132.45961255 -0.10698029 135.79322247 -0.11073549 139.12683228 -0.11459645 C170.39567686 -0.1503944 201.66423734 -0.12706694 232.93305018 -0.07786335 C260.70762921 -0.03454408 288.48169006 -0.04586869 316.25624084 -0.10258484 C347.46660284 -0.1661491 378.67666896 -0.19384593 409.88709265 -0.16511124 C413.21491557 -0.1621502 416.54273856 -0.15928592 419.8705616 -0.15646935 C420.68994633 -0.15574599 421.50933106 -0.15502264 422.35354563 -0.15427737 C434.7215159 -0.14401569 447.08925183 -0.16129352 459.45718193 -0.19211769 C473.5224831 -0.22704538 487.58716433 -0.22287925 501.65241092 -0.16708157 C509.52241186 -0.13697161 517.39103371 -0.13704392 525.26097806 -0.18083948 C531.13863663 -0.21012719 537.01510556 -0.18185015 542.89264984 -0.13119509 C545.26936534 -0.11960121 547.64625882 -0.12655881 550.0228449 -0.15393726 C569.64461541 -0.36312382 569.64461541 -0.36312382 575.68222684 5.10717829 C577.78137297 7.35390483 579.56473197 9.75618723 581.32093811 12.27656555 C582.51438031 13.66451013 583.71947254 15.04271433 584.94593811 16.40156555 C585.48476624 17.03320618 586.02359436 17.6648468 586.57875061 18.31562805 C589.28894295 21.3661136 592.22167644 24.18542947 595.12562561 27.05000305 C597.76100554 29.72289729 600.198603 32.53024858 602.64125061 35.37812805 C604.84259204 37.86615581 607.20182326 40.16850633 609.57093811 42.49531555 C612.0272866 44.99552741 614.28403179 47.65337071 616.57093811 50.30781555 C618.25892097 52.20679627 620.00863545 53.99662544 621.82093811 55.77656555 C624.83246696 58.74135227 627.61565706 61.84410981 630.37171936 65.0460968 C632.64298503 67.64508016 634.98144595 70.17637133 637.32093811 72.71406555 C649.32093811 85.87002885 649.32093811 85.87002885 649.32093811 88.27656555 C400.17093811 88.27656555 151.02093811 88.27656555 -105.67906189 88.27656555 C-99.01507799 80.50191766 -99.01507799 80.50191766 -96.24156189 77.83906555 C-93.84853412 75.48774633 -91.60666853 73.07836713 -89.42906189 70.52656555 C-86.49626623 67.1181814 -83.37834448 63.93256341 -80.17906189 60.77656555 C-76.39502824 57.04365885 -72.80526542 53.21443175 -69.35484314 49.1710968 C-67.53928811 47.11854625 -65.63146653 45.19910549 -63.67906189 43.27656555 C-61.1409139 40.77716792 -58.73777886 38.23874763 -56.42906189 35.52656555 C-53.34344621 31.93139866 -50.04709229 28.6031815 -46.67906189 25.27656555 C-43.35268905 21.99099458 -40.09336846 18.7094268 -37.05406189 15.15156555 C-36.28317855 14.29251516 -36.28317855 14.29251516 -35.4967218 13.41611022 C-33.61183778 11.28047298 -33.61183778 11.28047298 -31.99443907 8.75552684 C-23.70899037 -1.93894479 -12.43666964 -0.12301218 0 0 Z " fill="#FEFEFE" transform="translate(279.67906188964844,878.7234344482422)"/>
<path d="M0 0 C20.98232318 0.00453989 41.96464092 0.0036869 62.94696401 -0.00091031 C87.81604158 -0.00634212 112.68511594 -0.00834882 137.55419402 -0.00529805 C140.23379098 -0.00497771 142.91338794 -0.00466485 145.5929849 -0.00435498 C146.90871896 -0.00420071 148.22445302 -0.00404643 149.58005781 -0.00388748 C158.55546627 -0.00304814 167.53087253 -0.00444473 176.50628065 -0.00683454 C244.36565154 -0.02339651 312.21232275 0.34853844 380.06732534 1.12946078 C377.47266199 3.75833613 374.90769726 6.11489862 371.93451284 8.30914828 C371.13754995 8.90106967 370.34058706 9.49299106 369.51947378 10.10284945 C368.66901479 10.73038119 367.81855581 11.35791293 366.94232534 12.00446078 C360.17489842 17.03575119 353.45717807 22.11840108 346.81732534 27.31696078 C340.52435022 32.23961901 334.17822103 37.08058331 327.77362417 41.85699984 C322.48154487 45.80625313 317.24733663 49.82540471 312.03216909 53.87555453 C310.56457143 54.99123813 310.56457143 54.99123813 309.06732534 56.12946078 C308.58559031 56.55550732 308.10385529 56.98155385 307.60752223 57.42051088 C302.52483472 61.62231381 298.23514631 61.84410743 291.799381 61.77821967 C290.26180744 61.79226624 290.26180744 61.79226624 288.69317178 61.80659658 C285.2479058 61.83192284 281.80367196 61.82160492 278.35834096 61.81148288 C275.8674758 61.82225396 273.37661918 61.83518214 270.88577531 61.85008565 C265.46464614 61.87739841 260.04382799 61.8890835 254.62263654 61.88698718 C246.56083486 61.88387529 238.49929486 61.90914275 230.43755955 61.93969295 C215.20011124 61.99625814 199.96273078 62.01816306 184.72518961 62.02825252 C183.04493986 62.02936617 181.36469011 62.0304851 179.68444036 62.03160927 C178.4330505 62.03244326 178.4330505 62.03244326 177.15638003 62.03329411 C167.90995972 62.03997123 158.66355687 62.0553587 149.41714834 62.07110927 C121.48576439 62.11780619 93.55440035 62.15673828 65.62297414 62.16186377 C64.28288904 62.16212259 64.28288904 62.16212259 62.91573151 62.16238663 C58.38767443 62.16325023 53.85961733 62.16405041 49.33156024 62.16485087 C47.51415251 62.16517961 45.69674478 62.16550857 43.87933706 62.16583773 C42.97889882 62.16599241 42.07846058 62.16614709 41.15073633 62.16630645 C12.86640651 62.17150318 -15.41752327 62.22318176 -43.70171763 62.30939242 C-75.48155065 62.40624951 -107.26111275 62.46220179 -139.04110171 62.4618744 C-142.43139168 62.46199341 -145.82168159 62.46227814 -149.21197154 62.46268031 C-150.46412533 62.46279517 -150.46412533 62.46279517 -151.74157515 62.46291235 C-165.16426071 62.46511955 -178.58655448 62.50629211 -192.00911552 62.56125121 C-205.50605674 62.61547009 -219.00246279 62.62481588 -232.49947007 62.5890433 C-240.51317793 62.56907468 -248.52520806 62.5821484 -256.53871595 62.64334733 C-262.5306674 62.68537773 -268.52068321 62.66431668 -274.51268317 62.61918392 C-276.93064211 62.61066196 -279.34877677 62.62228488 -281.76650931 62.65645287 C-294.36409102 62.82291196 -303.72168483 62.60175901 -313.30564184 53.75150216 C-314.3538182 52.72016319 -315.39122366 51.67773646 -316.41632403 50.62345805 C-318.83909451 48.23640296 -321.51792078 46.28390291 -324.24517466 44.25446078 C-329.49453787 40.2383428 -334.71858615 36.19127055 -339.93267466 32.12946078 C-345.19357712 28.03312683 -350.45868337 23.9427328 -355.74517466 19.87946078 C-356.76095591 19.09828891 -357.77673716 18.31711703 -358.82329966 17.51227328 C-361.03851308 15.81468511 -363.25705423 14.12213477 -365.47954966 12.43414828 C-366.06760386 11.9858768 -366.65565806 11.53760531 -367.26153208 11.07574984 C-368.89118251 9.833718 -370.52317801 8.59476479 -372.15533091 7.35602328 C-374.59752386 5.39814708 -376.74449982 3.35887779 -378.93267466 1.12946078 C-280.73536923 0.26375174 -182.54038274 0.00723889 0 0 Z " fill="#FDFDFD" transform="translate(552.9326746612787,274.87053921818733)"/>
<path d="M0 0 C0.66 0.33 1.32 0.66 2 1 C1.67 152.8 1.34 304.6 1 461 C-1.46078137 458.53921863 -1.23979968 457.17179471 -1.26394406 453.81379142 C-1.25897588 453.08454109 -1.2540077 452.35529075 -1.24888897 451.60394192 C-1.25149625 450.82865868 -1.25410354 450.05337544 -1.25678983 449.25459877 C-1.26313904 446.62924165 -1.25509648 444.00411928 -1.24723816 441.37876892 C-1.24882483 439.48859603 -1.25128701 437.5984237 -1.25455457 435.70825297 C-1.26099674 430.49275412 -1.25487788 425.27733233 -1.24679029 420.06183851 C-1.24023508 414.44557588 -1.24515698 408.82932218 -1.24867249 403.21305847 C-1.25372437 392.20261236 -1.24806055 381.1921962 -1.23882218 370.18175381 C-1.22846007 357.37368961 -1.22850779 344.56563197 -1.22899476 331.75756437 C-1.22951101 308.22263196 -1.21946146 284.68771829 -1.20449232 261.15279203 C-1.19086611 239.64995478 -1.18463108 218.14712864 -1.18530273 196.64428711 C-1.18534315 195.26352638 -1.18538351 193.88276565 -1.18542381 192.50200491 C-1.18544416 191.81939576 -1.18546452 191.1367866 -1.18548548 190.43349232 C-1.18558627 186.99761527 -1.18567686 183.56173822 -1.18575573 180.12586117 C-1.18577244 179.44807381 -1.18578916 178.77028646 -1.18580638 178.07196009 C-1.18624947 156.27541338 -1.17913248 134.4788687 -1.17139288 112.68232353 C-1.16837025 103.74299292 -1.16731258 94.80366327 -1.16686058 85.8643322 C-1.16618003 74.9791208 -1.16173757 64.09391825 -1.15252777 53.2087106 C-1.14789531 47.64921319 -1.14486958 42.08972714 -1.14612198 36.53022766 C-1.14721105 31.44960054 -1.14373549 26.36899862 -1.13647345 21.28837676 C-1.13464904 19.44186388 -1.13454047 17.59534843 -1.13624074 15.74883544 C-1.1382835 13.25593202 -1.13428187 10.76311296 -1.12863445 8.27021694 C-1.13068977 7.53862544 -1.13274509 6.80703394 -1.13486269 6.05327299 C-1.11415489 1.11415489 -1.11415489 1.11415489 0 0 Z " fill="#000000" transform="translate(892,379)"/>
<path d="M0 0 C0.33 0 0.66 0 1 0 C1.57855153 39.95516886 2.10518318 79.90973781 2.12338257 119.8696785 C2.12498077 122.15993954 2.12852102 124.4501901 2.13256836 126.740448 C2.15955232 143.84995554 1.94462937 160.91167625 1 178 C0.67 178 0.34 178 0 178 C0 119.26 0 60.52 0 0 Z " fill="#000000" transform="translate(1049,65)"/>
<path d="M0 0 C0.33 0 0.66 0 1 0 C1 26.07 1 52.14 1 79 C0.67 79 0.34 79 0 79 C0 52.93 0 26.86 0 0 Z " fill="#000000" transform="translate(55,90)"/>
<path d="M0 0 C0.33 0 0.66 0 1 0 C1.1450862 5.13705483 1.28736126 10.27417785 1.42724609 15.41137695 C1.47501227 17.15195721 1.52349182 18.89251807 1.57275391 20.63305664 C1.87765001 31.42575654 2.07355585 42.20261455 2 53 C1.67 53 1.34 53 1 53 C-0.05919929 41.52434589 -0.11858428 30.13814991 -0.0625 18.625 C-0.05747067 16.80989708 -0.05291032 14.9947928 -0.04882812 13.1796875 C-0.03794598 8.78642392 -0.02076194 4.39322754 0 0 Z " fill="#000000" transform="translate(56,198)"/>
<path d="M0 0 C15.70362179 -0.11531128 31.32509099 -0.00090639 47 1 C47 1.33 47 1.66 47 2 C31.30744139 2.1499289 15.67659386 1.70079649 0 1 C0 0.67 0 0.34 0 0 Z " fill="#000000" transform="translate(1030,1100)"/>
<path d="M0 0 C0.33 0 0.66 0 1 0 C1 15.84 1 31.68 1 48 C0.67 48 0.34 48 0 48 C0 32.16 0 16.32 0 0 Z " fill="#000000" transform="translate(302,35)"/>
<path d="M0 0 C0.33 0 0.66 0 1 0 C2.30433619 5.93627021 2.11086318 11.83332252 2.0625 17.875 C2.05798828 18.94492187 2.05347656 20.01484375 2.04882812 21.1171875 C2.03709749 23.74484986 2.02068228 26.37239538 2 29 C1.67 29 1.34 29 1 29 C0.67 19.43 0.34 9.86 0 0 Z " fill="#000000" transform="translate(1047,21)"/>
<path d="M0 0 C0.33 0 0.66 0 1 0 C1 9.24 1 18.48 1 28 C0.67 28 0.34 28 0 28 C0 18.76 0 9.52 0 0 Z " fill="#000000" transform="translate(696,22)"/>
<path d="M0 0 C0.33 0 0.66 0 1 0 C1.95619733 3.99795892 2.1039592 7.70803922 2.0625 11.8125 C2.05347656 12.97394531 2.04445313 14.13539063 2.03515625 15.33203125 C2.02355469 16.21246094 2.01195312 17.09289062 2 18 C1.67 18 1.34 18 1 18 C0.67 12.06 0.34 6.12 0 0 Z " fill="#000000" transform="translate(1025,986)"/>
<path d="M0 0 C1.37432457 3.81756824 0.67975039 7.07255329 0 11 C-0.33 11 -0.66 11 -1 11 C-1.125 3.375 -1.125 3.375 0 0 Z " fill="#000000" transform="translate(411,22)"/>
<path d="M0 0 C0.33 0 0.66 0 1 0 C1 3.96 1 7.92 1 12 C0.67 12 0.34 12 0 12 C0 8.04 0 4.08 0 0 Z " fill="#000000" transform="translate(301,23)"/>
<path d="M0 0 C4.60209225 -0.17700355 6.78370866 -0.10814567 11 2 C7.37 1.67 3.74 1.34 0 1 C0 0.67 0 0.34 0 0 Z " fill="#000000" transform="translate(664,0)"/>
<path d="M0 0 C0.33 0 0.66 0 1 0 C1.1953125 6.0546875 1.1953125 6.0546875 1 8 C0.34 8.66 -0.32 9.32 -1 10 C-0.67 6.7 -0.34 3.4 0 0 Z " fill="#000000" transform="translate(1048,247)"/>
<path d="M0 0 C0.33 0 0.66 0 1 0 C1 3.63 1 7.26 1 11 C0.67 11 0.34 11 0 11 C0 7.37 0 3.74 0 0 Z " fill="#000000" transform="translate(804,28)"/>
<path d="M0 0 C2.97 0.33 5.94 0.66 9 1 C5.16380575 1.95904856 3.67568464 1.91892116 0 1 C0 0.67 0 0.34 0 0 Z " fill="#000000" transform="translate(1081,1102)"/>
<path d="M0 0 C2.97 0.33 5.94 0.66 9 1 C5.16380575 1.95904856 3.67568464 1.91892116 0 1 C0 0.67 0 0.34 0 0 Z " fill="#000000" transform="translate(272,0)"/>
<path d="M0 0 C2.97 0 5.94 0 9 0 C9 0.33 9 0.66 9 1 C6.03 1 3.06 1 0 1 C0 0.67 0 0.34 0 0 Z " fill="#000000" transform="translate(19,1279)"/>
<path d="M0 0 C2.31 0 4.62 0 7 0 C7 0.33 7 0.66 7 1 C4.69 1 2.38 1 0 1 C0 0.67 0 0.34 0 0 Z " fill="#000000" transform="translate(23,1101)"/>
<path d="M0 0 C1.98 0 3.96 0 6 0 C6 0.33 6 0.66 6 1 C4.02 1 2.04 1 0 1 C0 0.67 0 0.34 0 0 Z " fill="#000000" transform="translate(1024,0)"/>
<path d="M0 0 C0.33 0.99 0.66 1.98 1 3 C0.01 3.495 0.01 3.495 -1 4 C-0.67 2.68 -0.34 1.36 0 0 Z " fill="#000000" transform="translate(1104,1264)"/>
<path d="M0 0 C0.33 0 0.66 0 1 0 C1 1.65 1 3.3 1 5 C0.67 5 0.34 5 0 5 C0 3.35 0 1.7 0 0 Z " fill="#000000" transform="translate(80,986)"/>
<path d="M0 0 C0.33 0 0.66 0 1 0 C1 1.65 1 3.3 1 5 C0.67 5 0.34 5 0 5 C0 3.35 0 1.7 0 0 Z " fill="#000000" transform="translate(300,18)"/>
<path d="M0 0 C1.32 0.33 2.64 0.66 4 1 C3.01 1.495 3.01 1.495 2 2 C1.34 1.34 0.68 0.68 0 0 Z " fill="#000000" transform="translate(1033,2)"/>
<path d="M0 0 C0.99 0.33 1.98 0.66 3 1 C2.01 1 1.02 1 0 1 C0 0.67 0 0.34 0 0 Z " fill="#000000" transform="translate(12,1276)"/>
<path d="M0 0 C1 4 1 4 1 4 Z " fill="#000000" transform="translate(1104,1119)"/>
<path d="M0 0 C0.99 0.33 1.98 0.66 3 1 C2.01 1 1.02 1 0 1 C0 0.67 0 0.34 0 0 Z " fill="#000000" transform="translate(211,378)"/>
<path d="M0 0 C0.66 0.33 1.32 0.66 2 1 C1.01 1 0.02 1 -1 1 C-0.67 0.67 -0.34 0.34 0 0 Z " fill="#000000" transform="translate(896,376)"/>
<path d="M0 0 C0.66 0.33 1.32 0.66 2 1 C1.01 1 0.02 1 -1 1 C-0.67 0.67 -0.34 0.34 0 0 Z " fill="#000000" transform="translate(925,354)"/>
<path d="M0 0 C0.99 0.33 1.98 0.66 3 1 C2.01 1 1.02 1 0 1 C0 0.67 0 0.34 0 0 Z " fill="#000000" transform="translate(165,343)"/>
<path d="M0 0 C0.66 0.33 1.32 0.66 2 1 C1.01 1 0.02 1 -1 1 C-0.67 0.67 -0.34 0.34 0 0 Z " fill="#000000" transform="translate(958,329)"/>
<path d="M0 0 C0.66 0.33 1.32 0.66 2 1 C1.01 1 0.02 1 -1 1 C-0.67 0.67 -0.34 0.34 0 0 Z " fill="#000000" transform="translate(962,326)"/>
<path d="M0 0 C0.99 0.33 1.98 0.66 3 1 C2.01 1 1.02 1 0 1 C0 0.67 0 0.34 0 0 Z " fill="#000000" transform="translate(123,311)"/>
<path d="M0 0 C0.66 0.33 1.32 0.66 2 1 C1.01 1 0.02 1 -1 1 C-0.67 0.67 -0.34 0.34 0 0 Z " fill="#000000" transform="translate(983,310)"/>
<path d="M0 0 C0.66 0.33 1.32 0.66 2 1 C1.01 1 0.02 1 -1 1 C-0.67 0.67 -0.34 0.34 0 0 Z " fill="#000000" transform="translate(992,303)"/>
<path d="M0 0 C0.99 0.33 1.98 0.66 3 1 C2.01 1 1.02 1 0 1 C0 0.67 0 0.34 0 0 Z " fill="#000000" transform="translate(105,297)"/>
<path d="M0 0 C0.66 0.33 1.32 0.66 2 1 C1.01 1 0.02 1 -1 1 C-0.67 0.67 -0.34 0.34 0 0 Z " fill="#000000" transform="translate(1020,281)"/>
<path d="M0 0 C0.66 0.33 1.32 0.66 2 1 C1.01 1 0.02 1 -1 1 C-0.67 0.67 -0.34 0.34 0 0 Z " fill="#000000" transform="translate(1037,267)"/>
<path d="M0 0 C0.99 0.33 1.98 0.66 3 1 C2.01 1 1.02 1 0 1 C0 0.67 0 0.34 0 0 Z " fill="#000000" transform="translate(63,263)"/>
<path d="M0 0 C1 4 1 4 1 4 Z " fill="#000000" transform="translate(1046,15)"/>
<path d="M0 0 C4 1 4 1 4 1 Z " fill="#000000" transform="translate(429,0)"/>
<path d="M0 0 C3 1 3 1 3 1 Z " fill="#000000" transform="translate(16,1278)"/>
<path d="M0 0 C3 1 3 1 3 1 Z " fill="#000000" transform="translate(19,1102)"/>
<path d="" fill="#000000" transform="translate(0,0)"/>
<path d="M0 0 C0.99 0.495 0.99 0.495 2 1 C1.01 1.495 1.01 1.495 0 2 C0 1.34 0 0.68 0 0 Z " fill="#000000" transform="translate(88,972)"/>
<path d="M0 0 C0.66 0 1.32 0 2 0 C1.67 0.66 1.34 1.32 1 2 C0.67 1.34 0.34 0.68 0 0 Z " fill="#000000" transform="translate(1001,957)"/>
<path d="M0 0 C0.99 0.495 0.99 0.495 2 1 C1.01 1.495 1.01 1.495 0 2 C0 1.34 0 0.68 0 0 Z " fill="#000000" transform="translate(104,954)"/>
<path d="M0 0 C0.66 0 1.32 0 2 0 C1.67 0.66 1.34 1.32 1 2 C0.67 1.34 0.34 0.68 0 0 Z " fill="#000000" transform="translate(993,948)"/>
<path d="M0 0 C0.99 0.495 0.99 0.495 2 1 C1.01 1.495 1.01 1.495 0 2 C0 1.34 0 0.68 0 0 Z " fill="#000000" transform="translate(126,930)"/>
<path d="M0 0 C0.66 0 1.32 0 2 0 C1.67 0.66 1.34 1.32 1 2 C0.67 1.34 0.34 0.68 0 0 Z " fill="#000000" transform="translate(973,926)"/>
<path d="M0 0 C0.66 0 1.32 0 2 0 C1.67 0.66 1.34 1.32 1 2 C0.67 1.34 0.34 0.68 0 0 Z " fill="#000000" transform="translate(945,896)"/>
<path d="M0 0 C0.99 0.495 0.99 0.495 2 1 C1.01 1.495 1.01 1.495 0 2 C0 1.34 0 0.68 0 0 Z " fill="#000000" transform="translate(160,894)"/>
<path d="M0 0 C0.66 0 1.32 0 2 0 C1.67 0.66 1.34 1.32 1 2 C0.67 1.34 0.34 0.68 0 0 Z " fill="#000000" transform="translate(917,866)"/>
<path d="M0 0 C0.99 0.495 0.99 0.495 2 1 C1.01 1.495 1.01 1.495 0 2 C0 1.34 0 0.68 0 0 Z " fill="#000000" transform="translate(200,852)"/>
<path d="" fill="#000000" transform="translate(0,0)"/>
<path d="" fill="#000000" transform="translate(0,0)"/>
<path d="M0 0 C3 1 3 1 3 1 Z " fill="#000000" transform="translate(676,2)"/>
<path d="M0 0 C3 1 3 1 3 1 Z " fill="#000000" transform="translate(282,2)"/>
<path d="M0 0 C3 1 3 1 3 1 Z " fill="#000000" transform="translate(1030,1)"/>
<path d="M0 0 C3 1 3 1 3 1 Z " fill="#000000" transform="translate(824,0)"/>
<path d="M0 0 C3 1 3 1 3 1 Z " fill="#000000" transform="translate(76,0)"/>
<path d="M0 0 C2 1 2 1 2 1 Z " fill="#000000" transform="translate(9,1274)"/>
<path d="" fill="#000000" transform="translate(0,0)"/>
<path d="M0 0 C2 1 2 1 2 1 Z " fill="#000000" transform="translate(1094,1106)"/>
<path d="M0 0 C2 1 2 1 2 1 Z " fill="#000000" transform="translate(13,1105)"/>
<path d="M0 0 C2 1 2 1 2 1 Z " fill="#000000" transform="translate(1091,1104)"/>
<path d="M0 0 C2 1 2 1 2 1 Z " fill="#000000" transform="translate(17,1103)"/>
<path d="" fill="#000000" transform="translate(0,0)"/>
<path d="M0 0 C2 1 2 1 2 1 Z " fill="#000000" transform="translate(207,375)"/>
<path d="M0 0 C2 1 2 1 2 1 Z " fill="#000000" transform="translate(900,373)"/>
<path d="M0 0 C2 1 2 1 2 1 Z " fill="#000000" transform="translate(203,372)"/>
<path d="M0 0 C2 1 2 1 2 1 Z " fill="#000000" transform="translate(904,370)"/>
<path d="M0 0 C2 1 2 1 2 1 Z " fill="#000000" transform="translate(199,369)"/>
<path d="M0 0 C2 1 2 1 2 1 Z " fill="#000000" transform="translate(908,367)"/>
<path d="M0 0 C2 1 2 1 2 1 Z " fill="#000000" transform="translate(195,366)"/>
<path d="M0 0 C2 1 2 1 2 1 Z " fill="#000000" transform="translate(912,364)"/>
<path d="M0 0 C2 1 2 1 2 1 Z " fill="#000000" transform="translate(916,361)"/>
<path d="M0 0 C2 1 2 1 2 1 Z " fill="#000000" transform="translate(186,359)"/>
<path d="M0 0 C2 1 2 1 2 1 Z " fill="#000000" transform="translate(921,357)"/>
<path d="M0 0 C2 1 2 1 2 1 Z " fill="#000000" transform="translate(182,356)"/>
<path d="M0 0 C2 1 2 1 2 1 Z " fill="#000000" transform="translate(178,353)"/>
<path d="M0 0 C2 1 2 1 2 1 Z " fill="#000000" transform="translate(929,351)"/>
<path d="M0 0 C2 1 2 1 2 1 Z " fill="#000000" transform="translate(174,350)"/>
<path d="M0 0 C2 1 2 1 2 1 Z " fill="#000000" transform="translate(933,348)"/>
<path d="M0 0 C2 1 2 1 2 1 Z " fill="#000000" transform="translate(170,347)"/>
<path d="M0 0 C2 1 2 1 2 1 Z " fill="#000000" transform="translate(937,345)"/>
<path d="M0 0 C2 1 2 1 2 1 Z " fill="#000000" transform="translate(941,342)"/>
<path d="M0 0 C2 1 2 1 2 1 Z " fill="#000000" transform="translate(945,339)"/>
<path d="M0 0 C2 1 2 1 2 1 Z " fill="#000000" transform="translate(157,337)"/>
<path d="M0 0 C2 1 2 1 2 1 Z " fill="#000000" transform="translate(949,336)"/>
<path d="M0 0 C2 1 2 1 2 1 Z " fill="#000000" transform="translate(153,334)"/>
<path d="M0 0 C2 1 2 1 2 1 Z " fill="#000000" transform="translate(953,333)"/>
<path d="M0 0 C2 1 2 1 2 1 Z " fill="#000000" transform="translate(149,331)"/>
<path d="M0 0 C2 1 2 1 2 1 Z " fill="#000000" transform="translate(966,323)"/>
<path d="M0 0 C2 1 2 1 2 1 Z " fill="#000000" transform="translate(136,321)"/>
<path d="M0 0 C2 1 2 1 2 1 Z " fill="#000000" transform="translate(970,320)"/>
<path d="M0 0 C2 1 2 1 2 1 Z " fill="#000000" transform="translate(132,318)"/>
<path d="M0 0 C2 1 2 1 2 1 Z " fill="#000000" transform="translate(974,317)"/>
<path d="M0 0 C2 1 2 1 2 1 Z " fill="#000000" transform="translate(128,315)"/>
<path d="M0 0 C2 1 2 1 2 1 Z " fill="#000000" transform="translate(119,308)"/>
<path d="M0 0 C2 1 2 1 2 1 Z " fill="#000000" transform="translate(987,307)"/>
<path d="M0 0 C2 1 2 1 2 1 Z " fill="#000000" transform="translate(115,305)"/>
<path d="M0 0 C2 1 2 1 2 1 Z " fill="#000000" transform="translate(110,301)"/>
<path d="M0 0 C2 1 2 1 2 1 Z " fill="#000000" transform="translate(996,300)"/>
<path d="M0 0 C2 1 2 1 2 1 Z " fill="#000000" transform="translate(101,294)"/>
<path d="M0 0 C2 1 2 1 2 1 Z " fill="#000000" transform="translate(1005,293)"/>
<path d="M0 0 C2 1 2 1 2 1 Z " fill="#000000" transform="translate(1010,289)"/>
<path d="M0 0 C2 1 2 1 2 1 Z " fill="#000000" transform="translate(1015,285)"/>
<path d="M0 0 C2 1 2 1 2 1 Z " fill="#000000" transform="translate(87,283)"/>
<path d="M0 0 C2 1 2 1 2 1 Z " fill="#000000" transform="translate(1025,277)"/>
<path d="M0 0 C2 1 2 1 2 1 Z " fill="#000000" transform="translate(76,274)"/>
<path d="M0 0 C2 1 2 1 2 1 Z " fill="#000000" transform="translate(1030,273)"/>
<path d="M0 0 C2 1 2 1 2 1 Z " fill="#000000" transform="translate(70,269)"/>
<path d="" fill="#000000" transform="translate(0,0)"/>
<path d="" fill="#000000" transform="translate(0,0)"/>
<path d="" fill="#000000" transform="translate(0,0)"/>
<path d="" fill="#000000" transform="translate(0,0)"/>
<path d="M0 0 C2 1 2 1 2 1 Z " fill="#000000" transform="translate(291,6)"/>
<path d="M0 0 C2 1 2 1 2 1 Z " fill="#000000" transform="translate(66,6)"/>
<path d="M0 0 C2 1 2 1 2 1 Z " fill="#000000" transform="translate(682,4)"/>
<path d="M0 0 C2 1 2 1 2 1 Z " fill="#000000" transform="translate(422,4)"/>
<path d="M0 0 C2 1 2 1 2 1 Z " fill="#000000" transform="translate(288,4)"/>
<path d="M0 0 C2 1 2 1 2 1 Z " fill="#000000" transform="translate(818,3)"/>
<path d="M0 0 C2 1 2 1 2 1 Z " fill="#000000" transform="translate(679,3)"/>
<path d="M0 0 C2 1 2 1 2 1 Z " fill="#000000" transform="translate(285,3)"/>
<path d="M0 0 C2 1 2 1 2 1 Z " fill="#000000" transform="translate(70,3)"/>
<path d="M0 0 C2 1 2 1 2 1 Z " fill="#000000" transform="translate(820,2)"/>
<path d="M0 0 C2 1 2 1 2 1 Z " fill="#000000" transform="translate(425,2)"/>
<path d="M0 0 C2 1 2 1 2 1 Z " fill="#000000" transform="translate(72,2)"/>
<path d="M0 0 C2 1 2 1 2 1 Z " fill="#000000" transform="translate(822,1)"/>
<path d="M0 0 C2 1 2 1 2 1 Z " fill="#000000" transform="translate(427,1)"/>
<path d="M0 0 C2 1 2 1 2 1 Z " fill="#000000" transform="translate(74,1)"/>
<path d="" fill="#000000" transform="translate(0,0)"/>
<path d="" fill="#000000" transform="translate(0,0)"/>
<path d="" fill="#000000" transform="translate(0,0)"/>
<path d="" fill="#000000" transform="translate(0,0)"/>
<path d="" fill="#000000" transform="translate(0,0)"/>
<path d="" fill="#000000" transform="translate(0,0)"/>
<path d="" fill="#000000" transform="translate(0,0)"/>
<path d="" fill="#000000" transform="translate(0,0)"/>
<path d="" fill="#000000" transform="translate(0,0)"/>
<path d="" fill="#000000" transform="translate(0,0)"/>
<path d="" fill="#000000" transform="translate(0,0)"/>
<path d="" fill="#000000" transform="translate(0,0)"/>
<path d="" fill="#000000" transform="translate(0,0)"/>
<path d="" fill="#000000" transform="translate(0,0)"/>
<path d="" fill="#000000" transform="translate(0,0)"/>
<path d="" fill="#000000" transform="translate(0,0)"/>
<path d="" fill="#000000" transform="translate(0,0)"/>
<path d="" fill="#000000" transform="translate(0,0)"/>
<path d="" fill="#000000" transform="translate(0,0)"/>
<path d="" fill="#000000" transform="translate(0,0)"/>
<path d="" fill="#000000" transform="translate(0,0)"/>
<path d="" fill="#000000" transform="translate(0,0)"/>
<path d="" fill="#000000" transform="translate(0,0)"/>
<path d="" fill="#000000" transform="translate(0,0)"/>
<path d="" fill="#000000" transform="translate(0,0)"/>
<path d="" fill="#000000" transform="translate(0,0)"/>
<path d="" fill="#000000" transform="translate(0,0)"/>
<path d="" fill="#000000" transform="translate(0,0)"/>
<path d="" fill="#000000" transform="translate(0,0)"/>
<path d="" fill="#000000" transform="translate(0,0)"/>
<path d="" fill="#000000" transform="translate(0,0)"/>
<path d="" fill="#000000" transform="translate(0,0)"/>
<path d="" fill="#000000" transform="translate(0,0)"/>
<path d="" fill="#000000" transform="translate(0,0)"/>
<path d="" fill="#000000" transform="translate(0,0)"/>
<path d="" fill="#000000" transform="translate(0,0)"/>
<path d="" fill="#000000" transform="translate(0,0)"/>
<path d="" fill="#000000" transform="translate(0,0)"/>
<path d="" fill="#000000" transform="translate(0,0)"/>
<path d="" fill="#000000" transform="translate(0,0)"/>
<path d="" fill="#000000" transform="translate(0,0)"/>
<path d="" fill="#000000" transform="translate(0,0)"/>
<path d="" fill="#000000" transform="translate(0,0)"/>
<path d="" fill="#000000" transform="translate(0,0)"/>
<path d="" fill="#000000" transform="translate(0,0)"/>
<path d="" fill="#000000" transform="translate(0,0)"/>
<path d="" fill="#000000" transform="translate(0,0)"/>
<path d="" fill="#000000" transform="translate(0,0)"/>
<path d="" fill="#000000" transform="translate(0,0)"/>
<path d="" fill="#000000" transform="translate(0,0)"/>
<path d="" fill="#000000" transform="translate(0,0)"/>
<path d="" fill="#000000" transform="translate(0,0)"/>
<path d="" fill="#000000" transform="translate(0,0)"/>
<path d="" fill="#000000" transform="translate(0,0)"/>
<path d="" fill="#000000" transform="translate(0,0)"/>
<path d="" fill="#000000" transform="translate(0,0)"/>
<path d="" fill="#000000" transform="translate(0,0)"/>
<path d="" fill="#000000" transform="translate(0,0)"/>
<path d="" fill="#000000" transform="translate(0,0)"/>
<path d="" fill="#000000" transform="translate(0,0)"/>
<path d="" fill="#000000" transform="translate(0,0)"/>
<path d="" fill="#000000" transform="translate(0,0)"/>
<path d="" fill="#000000" transform="translate(0,0)"/>
<path d="" fill="#000000" transform="translate(0,0)"/>
<path d="" fill="#000000" transform="translate(0,0)"/>
<path d="" fill="#000000" transform="translate(0,0)"/>
<path d="" fill="#000000" transform="translate(0,0)"/>
<path d="" fill="#000000" transform="translate(0,0)"/>
<path d="" fill="#000000" transform="translate(0,0)"/>
<path d="" fill="#000000" transform="translate(0,0)"/>
<path d="" fill="#000000" transform="translate(0,0)"/>
<path d="" fill="#000000" transform="translate(0,0)"/>
<path d="" fill="#000000" transform="translate(0,0)"/>
<path d="" fill="#000000" transform="translate(0,0)"/>
<path d="" fill="#000000" transform="translate(0,0)"/>
<path d="" fill="#000000" transform="translate(0,0)"/>
<path d="" fill="#000000" transform="translate(0,0)"/>
<path d="" fill="#000000" transform="translate(0,0)"/>
<path d="" fill="#000000" transform="translate(0,0)"/>
<path d="" fill="#000000" transform="translate(0,0)"/>
<path d="" fill="#000000" transform="translate(0,0)"/>
<path d="" fill="#000000" transform="translate(0,0)"/>
<path d="" fill="#000000" transform="translate(0,0)"/>
<path d="" fill="#000000" transform="translate(0,0)"/>
<path d="" fill="#000000" transform="translate(0,0)"/>
<path d="" fill="#000000" transform="translate(0,0)"/>
<path d="" fill="#000000" transform="translate(0,0)"/>
<path d="" fill="#000000" transform="translate(0,0)"/>
<path d="" fill="#000000" transform="translate(0,0)"/>
<path d="" fill="#000000" transform="translate(0,0)"/>
<path d="" fill="#000000" transform="translate(0,0)"/>
<path d="" fill="#000000" transform="translate(0,0)"/>
<path d="" fill="#000000" transform="translate(0,0)"/>
<path d="" fill="#000000" transform="translate(0,0)"/>
<path d="" fill="#000000" transform="translate(0,0)"/>
<path d="" fill="#000000" transform="translate(0,0)"/>
<path d="" fill="#000000" transform="translate(0,0)"/>
<path d="" fill="#000000" transform="translate(0,0)"/>
<path d="" fill="#000000" transform="translate(0,0)"/>
<path d="" fill="#000000" transform="translate(0,0)"/>
<path d="" fill="#000000" transform="translate(0,0)"/>
<path d="" fill="#000000" transform="translate(0,0)"/>
<path d="" fill="#000000" transform="translate(0,0)"/>
<path d="" fill="#000000" transform="translate(0,0)"/>
<path d="" fill="#000000" transform="translate(0,0)"/>
<path d="" fill="#000000" transform="translate(0,0)"/>
<path d="" fill="#000000" transform="translate(0,0)"/>
<path d="" fill="#000000" transform="translate(0,0)"/>
<path d="" fill="#000000" transform="translate(0,0)"/>
<path d="" fill="#000000" transform="translate(0,0)"/>
<path d="" fill="#000000" transform="translate(0,0)"/>
<path d="" fill="#000000" transform="translate(0,0)"/>
<path d="" fill="#000000" transform="translate(0,0)"/>
<path d="" fill="#000000" transform="translate(0,0)"/>
<path d="" fill="#000000" transform="translate(0,0)"/>
<path d="" fill="#000000" transform="translate(0,0)"/>
<path d="" fill="#000000" transform="translate(0,0)"/>
<path d="" fill="#000000" transform="translate(0,0)"/>
<path d="" fill="#000000" transform="translate(0,0)"/>
<path d="" fill="#000000" transform="translate(0,0)"/>
<path d="" fill="#000000" transform="translate(0,0)"/>
<path d="" fill="#000000" transform="translate(0,0)"/>
<path d="" fill="#000000" transform="translate(0,0)"/>
<path d="" fill="#000000" transform="translate(0,0)"/>
<path d="" fill="#000000" transform="translate(0,0)"/>
<path d="" fill="#000000" transform="translate(0,0)"/>
<path d="" fill="#000000" transform="translate(0,0)"/>
<path d="" fill="#000000" transform="translate(0,0)"/>
<path d="" fill="#000000" transform="translate(0,0)"/>
<path d="" fill="#000000" transform="translate(0,0)"/>
<path d="" fill="#000000" transform="translate(0,0)"/>
<path d="" fill="#000000" transform="translate(0,0)"/>
<path d="" fill="#000000" transform="translate(0,0)"/>
<path d="" fill="#000000" transform="translate(0,0)"/>
<path d="" fill="#000000" transform="translate(0,0)"/>
<path d="" fill="#000000" transform="translate(0,0)"/>
<path d="" fill="#000000" transform="translate(0,0)"/>
<path d="" fill="#000000" transform="translate(0,0)"/>
<path d="" fill="#000000" transform="translate(0,0)"/>
<path d="" fill="#000000" transform="translate(0,0)"/>
<path d="" fill="#000000" transform="translate(0,0)"/>
<path d="" fill="#000000" transform="translate(0,0)"/>
<path d="" fill="#000000" transform="translate(0,0)"/>
<path d="" fill="#000000" transform="translate(0,0)"/>
<path d="" fill="#000000" transform="translate(0,0)"/>
<path d="" fill="#000000" transform="translate(0,0)"/>
<path d="" fill="#000000" transform="translate(0,0)"/>
<path d="" fill="#000000" transform="translate(0,0)"/>
<path d="" fill="#000000" transform="translate(0,0)"/>
<path d="" fill="#000000" transform="translate(0,0)"/>
<path d="" fill="#000000" transform="translate(0,0)"/>
<path d="" fill="#000000" transform="translate(0,0)"/>
<path d="" fill="#000000" transform="translate(0,0)"/>
<path d="" fill="#000000" transform="translate(0,0)"/>
<path d="" fill="#000000" transform="translate(0,0)"/>
<path d="" fill="#000000" transform="translate(0,0)"/>
<path d="" fill="#000000" transform="translate(0,0)"/>
<path d="" fill="#000000" transform="translate(0,0)"/>
<path d="" fill="#000000" transform="translate(0,0)"/>
<path d="" fill="#000000" transform="translate(0,0)"/>
<path d="" fill="#000000" transform="translate(0,0)"/>
<path d="" fill="#000000" transform="translate(0,0)"/>
<path d="" fill="#000000" transform="translate(0,0)"/>
<path d="" fill="#000000" transform="translate(0,0)"/>
<path d="" fill="#000000" transform="translate(0,0)"/>
<path d="" fill="#000000" transform="translate(0,0)"/>
<path d="" fill="#000000" transform="translate(0,0)"/>
<path d="" fill="#000000" transform="translate(0,0)"/>
<path d="" fill="#000000" transform="translate(0,0)"/>
<path d="" fill="#000000" transform="translate(0,0)"/>
<path d="" fill="#000000" transform="translate(0,0)"/>
<path d="" fill="#000000" transform="translate(0,0)"/>
<path d="" fill="#000000" transform="translate(0,0)"/>
<path d="" fill="#000000" transform="translate(0,0)"/>
<path d="" fill="#000000" transform="translate(0,0)"/>
<path d="" fill="#000000" transform="translate(0,0)"/>
<path d="" fill="#000000" transform="translate(0,0)"/>
<path d="" fill="#000000" transform="translate(0,0)"/>
<path d="" fill="#000000" transform="translate(0,0)"/>
<path d="" fill="#000000" transform="translate(0,0)"/>
<path d="" fill="#000000" transform="translate(0,0)"/>
<path d="" fill="#000000" transform="translate(0,0)"/>
<path d="" fill="#000000" transform="translate(0,0)"/>
<path d="" fill="#000000" transform="translate(0,0)"/>
<path d="" fill="#000000" transform="translate(0,0)"/>
<path d="" fill="#000000" transform="translate(0,0)"/>
<path d="" fill="#000000" transform="translate(0,0)"/>
<path d="" fill="#000000" transform="translate(0,0)"/>
<path d="" fill="#000000" transform="translate(0,0)"/>
<path d="" fill="#000000" transform="translate(0,0)"/>
<path d="" fill="#000000" transform="translate(0,0)"/>
<path d="" fill="#000000" transform="translate(0,0)"/>
<path d="" fill="#000000" transform="translate(0,0)"/>
<path d="" fill="#000000" transform="translate(0,0)"/>
<path d="" fill="#000000" transform="translate(0,0)"/>
<path d="" fill="#000000" transform="translate(0,0)"/>
<path d="" fill="#000000" transform="translate(0,0)"/>
<path d="" fill="#000000" transform="translate(0,0)"/>
<path d="" fill="#000000" transform="translate(0,0)"/>
<path d="" fill="#000000" transform="translate(0,0)"/>
<path d="" fill="#000000" transform="translate(0,0)"/>
<path d="" fill="#000000" transform="translate(0,0)"/>
<path d="" fill="#000000" transform="translate(0,0)"/>
<path d="" fill="#000000" transform="translate(0,0)"/>
<path d="" fill="#000000" transform="translate(0,0)"/>
<path d="" fill="#000000" transform="translate(0,0)"/>
<path d="" fill="#000000" transform="translate(0,0)"/>
<path d="" fill="#000000" transform="translate(0,0)"/>
<path d="" fill="#000000" transform="translate(0,0)"/>
<path d="" fill="#000000" transform="translate(0,0)"/>
<path d="" fill="#000000" transform="translate(0,0)"/>
<path d="" fill="#000000" transform="translate(0,0)"/>
<path d="" fill="#000000" transform="translate(0,0)"/>
<path d="" fill="#000000" transform="translate(0,0)"/>
<path d="" fill="#000000" transform="translate(0,0)"/>
<path d="" fill="#000000" transform="translate(0,0)"/>
<path d="" fill="#000000" transform="translate(0,0)"/>
<path d="" fill="#000000" transform="translate(0,0)"/>
<path d="" fill="#000000" transform="translate(0,0)"/>
<path d="" fill="#000000" transform="translate(0,0)"/>
<path d="" fill="#000000" transform="translate(0,0)"/>
<path d="" fill="#000000" transform="translate(0,0)"/>
<path d="" fill="#000000" transform="translate(0,0)"/>
<path d="" fill="#000000" transform="translate(0,0)"/>
<path d="" fill="#000000" transform="translate(0,0)"/>
<path d="" fill="#000000" transform="translate(0,0)"/>
<path d="" fill="#000000" transform="translate(0,0)"/>
<path d="" fill="#000000" transform="translate(0,0)"/>
<path d="" fill="#000000" transform="translate(0,0)"/>
<path d="" fill="#000000" transform="translate(0,0)"/>
<path d="" fill="#000000" transform="translate(0,0)"/>
<path d="" fill="#000000" transform="translate(0,0)"/>
<path d="" fill="#000000" transform="translate(0,0)"/>
<path d="" fill="#000000" transform="translate(0,0)"/>
<path d="" fill="#000000" transform="translate(0,0)"/>
<path d="" fill="#000000" transform="translate(0,0)"/>
<path d="" fill="#000000" transform="translate(0,0)"/>
<path d="" fill="#000000" transform="translate(0,0)"/>
<path d="" fill="#000000" transform="translate(0,0)"/>
<path d="" fill="#000000" transform="translate(0,0)"/>
<path d="" fill="#000000" transform="translate(0,0)"/>
<path d="" fill="#000000" transform="translate(0,0)"/>
<path d="" fill="#000000" transform="translate(0,0)"/>
<path d="" fill="#000000" transform="translate(0,0)"/>
<path d="" fill="#000000" transform="translate(0,0)"/>
<path d="" fill="#000000" transform="translate(0,0)"/>
<path d="" fill="#000000" transform="translate(0,0)"/>
<path d="" fill="#000000" transform="translate(0,0)"/>
<path d="" fill="#000000" transform="translate(0,0)"/>
<path d="" fill="#000000" transform="translate(0,0)"/>
<path d="" fill="#000000" transform="translate(0,0)"/>
<path d="" fill="#000000" transform="translate(0,0)"/>
<path d="" fill="#000000" transform="translate(0,0)"/>
<path d="" fill="#000000" transform="translate(0,0)"/>
<path d="" fill="#000000" transform="translate(0,0)"/>
<path d="" fill="#000000" transform="translate(0,0)"/>
<path d="" fill="#000000" transform="translate(0,0)"/>
<path d="" fill="#000000" transform="translate(0,0)"/>
<path d="" fill="#000000" transform="translate(0,0)"/>
<path d="" fill="#000000" transform="translate(0,0)"/>
<path d="" fill="#000000" transform="translate(0,0)"/>
<path d="" fill="#000000" transform="translate(0,0)"/>
<path d="" fill="#000000" transform="translate(0,0)"/>
<path d="" fill="#000000" transform="translate(0,0)"/>
<path d="" fill="#000000" transform="translate(0,0)"/>
<path d="" fill="#000000" transform="translate(0,0)"/>
<path d="" fill="#000000" transform="translate(0,0)"/>
<path d="" fill="#000000" transform="translate(0,0)"/>
<path d="" fill="#000000" transform="translate(0,0)"/>
<path d="" fill="#000000" transform="translate(0,0)"/>
<path d="" fill="#000000" transform="translate(0,0)"/>
<path d="" fill="#000000" transform="translate(0,0)"/>
<path d="" fill="#000000" transform="translate(0,0)"/>
<path d="" fill="#000000" transform="translate(0,0)"/>
<path d="" fill="#000000" transform="translate(0,0)"/>
<path d="" fill="#000000" transform="translate(0,0)"/>
<path d="" fill="#000000" transform="translate(0,0)"/>
<path d="" fill="#000000" transform="translate(0,0)"/>
<path d="" fill="#000000" transform="translate(0,0)"/>
<path d="" fill="#000000" transform="translate(0,0)"/>
<path d="" fill="#000000" transform="translate(0,0)"/>
<path d="" fill="#000000" transform="translate(0,0)"/>
<path d="" fill="#000000" transform="translate(0,0)"/>
<path d="" fill="#000000" transform="translate(0,0)"/>
<path d="" fill="#000000" transform="translate(0,0)"/>
<path d="" fill="#000000" transform="translate(0,0)"/>
<path d="" fill="#000000" transform="translate(0,0)"/>
<path d="" fill="#000000" transform="translate(0,0)"/>
<path d="" fill="#000000" transform="translate(0,0)"/>
<path d="" fill="#000000" transform="translate(0,0)"/>
<path d="" fill="#000000" transform="translate(0,0)"/>
<path d="" fill="#000000" transform="translate(0,0)"/>
<path d="" fill="#000000" transform="translate(0,0)"/>
<path d="" fill="#000000" transform="translate(0,0)"/>
<path d="" fill="#000000" transform="translate(0,0)"/>
<path d="" fill="#000000" transform="translate(0,0)"/>
<path d="" fill="#000000" transform="translate(0,0)"/>
<path d="" fill="#000000" transform="translate(0,0)"/>
<path d="" fill="#000000" transform="translate(0,0)"/>
<path d="" fill="#000000" transform="translate(0,0)"/>
<path d="" fill="#000000" transform="translate(0,0)"/>
<path d="" fill="#000000" transform="translate(0,0)"/>
<path d="" fill="#000000" transform="translate(0,0)"/>
<path d="" fill="#000000" transform="translate(0,0)"/>
<path d="" fill="#000000" transform="translate(0,0)"/>
<path d="" fill="#000000" transform="translate(0,0)"/>
<path d="" fill="#000000" transform="translate(0,0)"/>
<path d="" fill="#000000" transform="translate(0,0)"/>
<path d="" fill="#000000" transform="translate(0,0)"/>
<path d="" fill="#000000" transform="translate(0,0)"/>
<path d="" fill="#000000" transform="translate(0,0)"/>
<path d="" fill="#000000" transform="translate(0,0)"/>
<path d="" fill="#000000" transform="translate(0,0)"/>
<path d="" fill="#000000" transform="translate(0,0)"/>
<path d="" fill="#000000" transform="translate(0,0)"/>
<path d="" fill="#000000" transform="translate(0,0)"/>
<path d="" fill="#000000" transform="translate(0,0)"/>
<path d="" fill="#000000" transform="translate(0,0)"/>
<path d="" fill="#000000" transform="translate(0,0)"/>
<path d="" fill="#000000" transform="translate(0,0)"/>
<path d="" fill="#000000" transform="translate(0,0)"/>
<path d="" fill="#000000" transform="translate(0,0)"/>
<path d="" fill="#000000" transform="translate(0,0)"/>
<path d="" fill="#000000" transform="translate(0,0)"/>
<path d="" fill="#000000" transform="translate(0,0)"/>
<path d="" fill="#000000" transform="translate(0,0)"/>
<path d="" fill="#000000" transform="translate(0,0)"/>
<path d="" fill="#000000" transform="translate(0,0)"/>
<path d="" fill="#000000" transform="translate(0,0)"/>
<path d="" fill="#000000" transform="translate(0,0)"/>
<path d="" fill="#000000" transform="translate(0,0)"/>
<path d="" fill="#000000" transform="translate(0,0)"/>
<path d="" fill="#000000" transform="translate(0,0)"/>
<path d="" fill="#000000" transform="translate(0,0)"/>
<path d="" fill="#000000" transform="translate(0,0)"/>
<path d="" fill="#000000" transform="translate(0,0)"/>
<path d="" fill="#000000" transform="translate(0,0)"/>
<path d="" fill="#000000" transform="translate(0,0)"/>
<path d="" fill="#000000" transform="translate(0,0)"/>
<path d="" fill="#000000" transform="translate(0,0)"/>
<path d="" fill="#000000" transform="translate(0,0)"/>
<path d="" fill="#000000" transform="translate(0,0)"/>
<path d="" fill="#000000" transform="translate(0,0)"/>
<path d="" fill="#000000" transform="translate(0,0)"/>
<path d="" fill="#000000" transform="translate(0,0)"/>
<path d="" fill="#000000" transform="translate(0,0)"/>
<path d="" fill="#000000" transform="translate(0,0)"/>
<path d="" fill="#000000" transform="translate(0,0)"/>
<path d="" fill="#000000" transform="translate(0,0)"/>
<path d="" fill="#000000" transform="translate(0,0)"/>
<path d="" fill="#000000" transform="translate(0,0)"/>
<path d="" fill="#000000" transform="translate(0,0)"/>
<path d="" fill="#000000" transform="translate(0,0)"/>
<path d="" fill="#000000" transform="translate(0,0)"/>
<path d="" fill="#000000" transform="translate(0,0)"/>
<path d="" fill="#000000" transform="translate(0,0)"/>
<path d="" fill="#000000" transform="translate(0,0)"/>
<path d="" fill="#000000" transform="translate(0,0)"/>
<path d="" fill="#000000" transform="translate(0,0)"/>
</svg>
