<svg width="1224" height="1432" xmlns="http://www.w3.org/2000/svg" xmlns:xlink="http://www.w3.org/1999/xlink" xml:space="preserve" overflow="hidden"><defs><filter id="fx0" x="-10%" y="-10%" width="120%" height="120%" filterUnits="userSpaceOnUse" primitiveUnits="userSpaceOnUse"><feComponentTransfer color-interpolation-filters="sRGB"><feFuncR type="discrete" tableValues="0 0"/><feFuncG type="discrete" tableValues="0 0"/><feFuncB type="discrete" tableValues="0 0"/><feFuncA type="linear" slope="0.34902" intercept="0"/></feComponentTransfer><feGaussianBlur stdDeviation="4.8119 4.8119"/></filter><filter id="fx1" x="-10%" y="-10%" width="120%" height="120%" filterUnits="userSpaceOnUse" primitiveUnits="userSpaceOnUse"><feComponentTransfer color-interpolation-filters="sRGB"><feFuncR type="discrete" tableValues="0 0"/><feFuncG type="discrete" tableValues="0 0"/><feFuncB type="discrete" tableValues="0 0"/><feFuncA type="linear" slope="0.34902" intercept="0"/></feComponentTransfer><feGaussianBlur stdDeviation="4.8119 4.8119"/></filter><filter id="fx2" x="-10%" y="-10%" width="120%" height="120%" filterUnits="userSpaceOnUse" primitiveUnits="userSpaceOnUse"><feComponentTransfer color-interpolation-filters="sRGB"><feFuncR type="discrete" tableValues="0 0"/><feFuncG type="discrete" tableValues="0 0"/><feFuncB type="discrete" tableValues="0 0"/><feFuncA type="linear" slope="0.34902" intercept="0"/></feComponentTransfer><feGaussianBlur stdDeviation="4.8119 4.8119"/></filter><filter id="fx3" x="-10%" y="-10%" width="120%" height="120%" filterUnits="userSpaceOnUse" primitiveUnits="userSpaceOnUse"><feComponentTransfer color-interpolation-filters="sRGB"><feFuncR type="discrete" tableValues="0 0"/><feFuncG type="discrete" tableValues="0 0"/><feFuncB type="discrete" tableValues="0 0"/><feFuncA type="linear" slope="0.34902" intercept="0"/></feComponentTransfer><feGaussianBlur stdDeviation="4.8119 4.8119"/></filter><filter id="fx4" x="-10%" y="-10%" width="120%" height="120%" filterUnits="userSpaceOnUse" primitiveUnits="userSpaceOnUse"><feComponentTransfer color-interpolation-filters="sRGB"><feFuncR type="discrete" tableValues="0 0"/><feFuncG type="discrete" tableValues="0 0"/><feFuncB type="discrete" tableValues="0 0"/><feFuncA type="linear" slope="0.34902" intercept="0"/></feComponentTransfer><feGaussianBlur stdDeviation="4.8119 4.8119"/></filter><clipPath id="clip5"><rect x="1588" y="449" width="1224" height="1432"/></clipPath><clipPath id="clip6"><path d="M1606 459 1606 644 2794 644 2794 459 2447.5 459 2447.5 587.839 2272.6 587.839 2272.6 459 2035 459 2035 587.839 1863.4 587.839 1863.4 459ZM1588 449 2812 449 2812 1881 1588 1881Z" fill-rule="evenodd" clip-rule="evenodd"/></clipPath><clipPath id="clip7"><path d="M1606 644 1787.5 802 2612.5 802 2794 644ZM1588 449 2812 449 2812 1881 1588 1881Z" fill-rule="evenodd" clip-rule="evenodd"/></clipPath><clipPath id="clip8"><path d="M1787 802 1787 1445 2612 1445 2612 802ZM1588 449 2812 449 2812 1881 1588 1881Z" fill-rule="evenodd" clip-rule="evenodd"/></clipPath><clipPath id="clip9"><path d="M1787.5 1445 1606 1650 2794 1650 2612.5 1445ZM1588 449 2812 449 2812 1881 1588 1881Z" fill-rule="evenodd" clip-rule="evenodd"/></clipPath><clipPath id="clip10"><path d="M1606 1650 1606 1855 2794 1855 2794 1650ZM1588 449 2812 449 2812 1881 1588 1881Z" fill-rule="evenodd" clip-rule="evenodd"/></clipPath></defs><g clip-path="url(#clip5)" transform="translate(-1588 -449)"><g clip-path="url(#clip6)"><g filter="url(#fx0)" transform="translate(1587 448)"><g><path d="M19 204.3 19 19.3004 276.4 19.3004 276.4 148.14 448 148.14 448 19.3004 685.6 19.3004 685.6 148.14 860.5 148.14 860.5 19.3004 1207 19.3004 1207 204.3Z" stroke="#000000" stroke-width="6" stroke-linejoin="round" stroke-miterlimit="10" fill="#FFFFFF" fill-rule="evenodd"/></g></g></g><path d="M1606 644 1606 459 1863.4 459 1863.4 587.839 2035 587.839 2035 459 2272.6 459 2272.6 587.839 2447.5 587.839 2447.5 459 2794 459 2794 644Z" stroke="#000000" stroke-width="6.1875" stroke-linejoin="round" stroke-miterlimit="10" fill="#FFFFFF" fill-rule="evenodd"/><g clip-path="url(#clip7)"><g filter="url(#fx1)" transform="translate(1587 633)"><g><path d="M19 19.3004 200.5 177.3 1025.5 177.3 1207 19.3004Z" stroke="#000000" stroke-width="6" stroke-linejoin="round" stroke-miterlimit="10" fill="#FFFFFF" fill-rule="evenodd"/></g></g></g><path d="M1606 644 1787.5 802 2612.5 802 2794 644Z" stroke="#000000" stroke-width="6.1875" stroke-linejoin="round" stroke-miterlimit="10" fill="#FFFFFF" fill-rule="evenodd"/><g clip-path="url(#clip8)"><g filter="url(#fx2)" transform="translate(1768 791)"><g><rect x="19.0001" y="19.3005" width="825" height="643" stroke="#000000" stroke-width="6" stroke-linejoin="round" stroke-miterlimit="10" fill="#FFFFFF"/></g></g></g><rect x="1787" y="802" width="825" height="643" stroke="#000000" stroke-width="6.1875" stroke-linejoin="round" stroke-miterlimit="10" fill="#FFFFFF"/><g clip-path="url(#clip9)"><g filter="url(#fx3)" transform="translate(1587 1434)"><g><path d="M200.5 19.3007 1025.5 19.3007 1207 224.301 19 224.301Z" stroke="#000000" stroke-width="6" stroke-linejoin="round" stroke-miterlimit="10" fill="#FFFFFF" fill-rule="evenodd"/></g></g></g><path d="M1787.5 1445 2612.5 1445 2794 1650 1606 1650Z" stroke="#000000" stroke-width="6.1875" stroke-linejoin="round" stroke-miterlimit="10" fill="#FFFFFF" fill-rule="evenodd"/><g clip-path="url(#clip10)"><g filter="url(#fx4)" transform="translate(1587 1639)"><g><rect x="19" y="19.3005" width="1188" height="205" stroke="#000000" stroke-width="6" stroke-linejoin="round" stroke-miterlimit="10" fill="#FFFFFF"/></g></g></g><rect x="1606" y="1650" width="1188" height="205" stroke="#000000" stroke-width="6.1875" stroke-linejoin="round" stroke-miterlimit="10" fill="#FFFFFF"/></g></svg>